<?xml version="1.0" encoding="UTF-8"?>
<svg width="440px" height="280px" viewBox="0 0 440 280" version="1.1" xmlns="http://www.w3.org/2000/svg"
     xmlns:xlink="http://www.w3.org/1999/xlink">
    <!-- Generator: Sketch 3.6.1 (26313) - http://www.bohemiancoding.com/sketch -->
    <title>marquee@2x</title>
    <desc>Created with Sketch.</desc>
    <defs></defs>
    <g id="Blank-Slate" stroke="none" stroke-width="1" fill="none" fill-rule="evenodd">
        <g id="marquee">
            <g id="theater" transform="translate(91.000000, 8.000000)">
                <path d="M101.850083,141.590569 L101.850083,124.653109 L54.5838653,137.961223 C54.5838653,137.961223 58.0175386,117.797336 82.661004,110.74036 C90.1345644,108.724228 96.5982812,108.724228 101.850083,109.732294 L101.850083,39.9652987 L125.483192,39.9652987 C122.857291,32.1014598 120.433461,25.8508343 118.413261,21.6163414 C114.979588,14.5588532 111.343331,19.1967774 103.465628,26.0525499 C97.8096832,30.6899622 83.4682634,40.973877 61.8553545,46.6193555 C40.2419327,52.4670617 22.8709822,50.8538484 15.5989802,49.6440665 C5.29744752,47.8291375 -0.156425743,45.6112892 0.449788119,53.475128 C0.853930693,60.3309006 2.46947525,71.0177347 6.30780396,85.3339147 C14.3875782,115.982919 41.2522891,175.062569 92.1547644,161.351024 C105.486341,157.721678 114.980101,150.664189 121.443818,141.590569 L101.850083,141.590569 L101.850083,141.590569 Z M25.6989545,85.7368341 L61.8553545,76.2597819 C61.8553545,76.2597819 60.8455109,90.1725307 47.3118634,93.8023886 C33.7787287,97.2300188 25.6989545,85.7368341 25.6989545,85.7368341 L25.6989545,85.7368341 Z"
                      id="Shape" fill="#E2574C"></path>
                <path d="M238.599006,41.3767963 C228.903174,42.9900096 205.876279,45.2078579 177.395511,37.5457347 C148.914743,29.8836115 129.927222,16.5754978 122.453661,10.3248723 C111.747986,1.4529671 107.102398,-4.59645476 102.658368,4.67888172 C98.6184812,12.9461519 93.3666792,26.2542656 88.3169485,45.0061422 C77.409202,85.5351184 69.3294277,171.029279 136.59301,188.974805 C204.058663,206.920331 239.810921,128.88709 250.718667,88.3581137 C255.768398,69.6057251 257.990156,55.4912607 258.59637,46.4176399 C259.404143,35.9325214 252.334725,38.9572323 238.599006,41.3767963 L238.599006,41.3767963 Z M103.264069,75.05 C103.264069,75.05 113.969745,58.314256 132.14898,63.5568152 C150.328216,68.7993744 151.742202,88.761545 151.742202,88.761545 L103.264069,75.05 L103.264069,75.05 Z M147.298685,148.647545 C115.585802,139.372208 110.738143,114.167479 110.738143,114.167479 L195.776818,137.758995 C195.776818,137.960711 178.607426,157.721166 147.298685,148.647545 L147.298685,148.647545 Z M178.001212,97.2300188 C178.001212,97.2300188 188.302745,80.6959905 205.674208,85.7368341 C223.045671,90.9793933 224.459657,110.941564 224.459657,110.941564 L178.001212,97.2300188 L178.001212,97.2300188 Z"
                      id="Shape" fill="#EFC75E"></path>
                <path d="M149.722515,149.252692 L147.298685,148.647545 C115.585802,139.372208 110.738143,114.167479 110.738143,114.167479 L155.580531,126.66873 L178.607426,37.7469384 C178.203283,37.5452227 177.799653,37.5452227 177.395511,37.5452227 C148.914743,29.8830996 129.927222,16.5749858 122.453661,10.3243603 C111.747986,1.45245513 107.102398,-4.59696673 102.658368,4.67836975 C98.6184812,12.9456399 93.3666792,26.2537536 88.3169485,45.0056303 C77.8133446,83.9213932 69.9356416,164.172995 129.11945,186.554729 L139.218911,189.57944 L149.722515,149.252692 L149.722515,149.252692 L149.722515,149.252692 Z M103.264069,75.05 C103.264069,75.05 113.969745,58.314256 132.14898,63.5568152 C150.328216,68.7993744 151.742202,88.761545 151.742202,88.761545 L103.264069,75.05 L103.264069,75.05 Z"
                      id="Shape" fill="#AF8720"></path>
                <path d="M85.0848337,129.492237 L54.5838653,138.162426 C54.5838653,138.162426 57.8159802,119.208322 80.2366614,111.747915 L62.865198,46.6193555 C62.4610554,46.8210712 62.0574257,46.8210712 61.4512119,47.0227868 C39.8377901,52.870493 22.4668396,51.2572798 15.1948376,50.0474978 C4.89330495,48.2325688 -0.560568317,46.0147205 0.0456455446,53.8785594 C0.449788119,60.7343319 2.06533267,71.421166 5.90366139,85.737346 C14.3875782,115.982919 41.2522891,175.062569 92.1542515,161.351024 L93.3661663,160.947592 C93.3666792,160.947592 85.0848337,129.492237 85.0848337,129.492237 L85.0848337,129.492237 Z M25.6989545,85.7368341 L61.8553545,76.2597819 C61.8553545,76.2597819 60.8455109,90.1725307 47.3118634,93.8023886 C33.7787287,97.2300188 25.6989545,85.7368341 25.6989545,85.7368341 L25.6989545,85.7368341 Z"
                      id="Shape" fill="#AD3C34"></path>
            </g>
            <text id="SENTIMENTAL" font-family="Avenir-Book, Avenir" font-size="50" font-weight="normal"
                  letter-spacing="1.25" fill="#EFC75E">
                <tspan x="48.175" y="259">SENTIMENTAL</tspan>
            </text>
        </g>
    </g>
</svg>