<?xml version="1.0" encoding="UTF-8"?>
<svg width="128px" height="128px" viewBox="0 0 128 128" version="1.1" xmlns="http://www.w3.org/2000/svg"
     xmlns:xlink="http://www.w3.org/1999/xlink">
    <!-- Generator: Sketch 3.6.1 (26313) - http://www.bohemiancoding.com/sketch -->
    <title>sticon@1.5x</title>
    <desc>Created with Sketch.</desc>
    <defs></defs>
    <g id="Page-1" stroke="none" stroke-width="1" fill="none" fill-rule="evenodd">
        <g id="sticon">
            <g id="theater" transform="translate(7.097030, 21.544554)">
                <path d="M44.8531273,62.4641255 L44.8531273,54.9919922 L24.0378504,60.8630025 C24.0378504,60.8630025 25.5499845,51.9674981 36.4025676,48.854241 C39.6938026,47.9648035 42.5403188,47.9648035 44.8531273,48.4095222 L44.8531273,17.6310997 L55.2607658,17.6310997 C54.1043615,14.1618869 53.0369462,11.4043596 52.1472828,9.53626978 C50.6351487,6.42278679 49.0337998,8.46885443 45.564587,11.4933485 C43.0738006,13.5391903 36.7580716,18.0760443 27.2400965,20.5666048 C17.7218955,23.1463802 10.0720102,22.4346946 6.86953828,21.900987 C2.33291011,21.1003125 -0.068887364,20.1218861 0.198079404,23.5910989 C0.376057249,26.615593 1.08751691,31.330199 2.77785472,37.645928 C6.33605647,51.1670495 18.1668401,77.2306401 40.5834659,71.181652 C46.4544762,69.580529 50.6353746,66.467046 53.4818908,62.4641255 L44.8531273,62.4641255 L44.8531273,62.4641255 Z M11.3174034,37.82368 L27.2400965,33.6427817 C27.2400965,33.6427817 26.7953777,39.7805329 20.8353785,41.3818818 C14.8756051,42.8940159 11.3174034,37.82368 11.3174034,37.82368 L11.3174034,37.82368 Z"
                      id="Shape" fill="#E2574C"></path>
                <path d="M105.075139,18.2537963 C100.805251,18.9654818 90.6645796,19.9439082 78.1221104,16.5636843 C65.5796412,13.1834604 57.2178445,7.31245015 53.9266095,4.55492285 C49.2120035,0.640991275 47.1661617,-2.02777296 45.209083,2.06413646 C43.4299822,5.71132712 41.1171736,11.5823374 38.893354,19.8549193 C34.089759,37.7346911 30.5315573,75.4513134 60.1533497,83.3681655 C89.864131,91.2850175 105.608846,56.8598561 110.412441,38.9800843 C112.636261,30.7072765 113.614687,24.4805364 113.881654,20.4776159 C114.237384,15.8519988 111.124127,17.1863809 105.075139,18.2537963 L105.075139,18.2537963 Z M45.4758239,33.109074 C45.4758239,33.109074 50.19043,25.7259296 58.196271,28.0387382 C66.2021119,30.3515467 66.8248085,39.1580622 66.8248085,39.1580622 L45.4758239,33.109074 L45.4758239,33.109074 Z M64.8679557,65.5773826 C50.9021155,61.4854732 48.7672848,50.3661492 48.7672848,50.3661492 L86.2169403,60.7737877 C86.2169403,60.8627766 78.6558181,69.5803031 64.8679557,65.5773826 L64.8679557,65.5773826 Z M78.3888513,42.8940159 C78.3888513,42.8940159 82.9254795,35.5998604 90.5755906,37.82368 C98.2257018,40.1364886 98.8483984,48.943004 98.8483984,48.943004 L78.3888513,42.8940159 L78.3888513,42.8940159 Z"
                      id="Shape" fill="#EFC75E"></path>
                <path d="M65.935371,65.8443494 L64.8679557,65.5773826 C50.9021155,61.4854732 48.7672848,50.3661492 48.7672848,50.3661492 L68.5151464,55.8812038 L78.6558181,16.6524474 C78.4778402,16.5634585 78.3000882,16.5634585 78.1221104,16.5634585 C65.5796412,13.1832346 57.2178445,7.31222429 53.9266095,4.55469699 C49.2120035,0.640765415 47.1661617,-2.02799882 45.209083,2.0639106 C43.4299822,5.71110126 41.1171736,11.5821116 38.893354,19.8546935 C34.2677369,37.0227797 30.7985241,72.4265935 56.8621147,82.3005243 L61.3097539,83.6349064 L65.935371,65.8443494 L65.935371,65.8443494 L65.935371,65.8443494 Z M45.4758239,33.109074 C45.4758239,33.109074 50.19043,25.7259296 58.196271,28.0387382 C66.2021119,30.3515467 66.8248085,39.1580622 66.8248085,39.1580622 L45.4758239,33.109074 L45.4758239,33.109074 Z"
                      id="Shape" fill="#AF8720"></path>
                <path d="M37.4699829,57.1268229 L24.0378504,60.9517655 C24.0378504,60.9517655 25.4612214,52.5899688 35.3349264,49.2987338 L27.6848152,20.5666048 C27.5068374,20.6555938 27.3290854,20.6555938 27.0621186,20.7445827 C17.5439177,23.324358 9.89403235,22.6126725 6.69156044,22.0789648 C2.15493226,21.2782904 -0.246865209,20.2998639 0.0201015587,23.7690768 C0.198079404,26.7935708 0.909539065,31.5081768 2.59987687,37.8239059 C6.33605647,51.1670495 18.1668401,77.2306401 40.5832401,71.181652 L41.1169478,71.0036741 C41.1171736,71.0036741 37.4699829,57.1268229 37.4699829,57.1268229 L37.4699829,57.1268229 Z M11.3174034,37.82368 L27.2400965,33.6427817 C27.2400965,33.6427817 26.7953777,39.7805329 20.8353785,41.3818818 C14.8756051,42.8940159 11.3174034,37.82368 11.3174034,37.82368 L11.3174034,37.82368 Z"
                      id="Shape" fill="#AD3C34"></path>
            </g>
        </g>
    </g>
</svg>